{"asset":{"version":"2.0","generator":"babylon.js glTF exporter for 3dsmax 2021 v20210401.5"},"scene":0,"scenes":[{"nodes":[0]}],"nodes":[{"mesh":0,"scale":[0.393700778,0.393700778,0.393700778],"name":"B1-008-HOUSE5-1"}],"meshes":[{"primitives":[{"attributes":{"POSITION":1,"NORMAL":2,"TEXCOORD_0":3},"indices":0,"material":0},{"attributes":{"POSITION":5,"NORMAL":6,"TEXCOORD_0":7},"indices":4,"material":1},{"attributes":{"POSITION":9,"NORMAL":10,"TEXCOORD_0":11},"indices":8,"material":2},{"attributes":{"POSITION":13,"NORMAL":14,"TEXCOORD_0":15},"indices":12,"material":3},{"attributes":{"POSITION":17,"NORMAL":18,"TEXCOORD_0":19},"indices":16,"material":4}],"name":"B1-008-HOUSE5-1"}],"accessors":[{"bufferView":0,"componentType":5123,"count":1926,"type":"SCALAR","name":"accessorIndices"},{"bufferView":1,"componentType":5126,"count":1926,"max":[14.6852741,27.9238338,18.911375],"min":[-14.8827686,13.0728054,-21.47247],"type":"VEC3","name":"accessorPositions"},{"bufferView":1,"byteOffset":23112,"componentType":5126,"count":1926,"type":"VEC3","name":"accessorNormals"},{"bufferView":2,"componentType":5126,"count":1926,"type":"VEC2","name":"accessorUVs"},{"bufferView":0,"byteOffset":3852,"componentType":5123,"count":1188,"type":"SCALAR","name":"accessorIndices"},{"bufferView":1,"byteOffset":46224,"componentType":5126,"count":1188,"max":[10.7520533,14.2799139,16.3281822],"min":[-11.1756277,2.728491,-16.2898979],"type":"VEC3","name":"accessorPositions"},{"bufferView":1,"byteOffset":60480,"componentType":5126,"count":1188,"type":"VEC3","name":"accessorNormals"},{"bufferView":2,"byteOffset":15408,"componentType":5126,"count":1188,"type":"VEC2","name":"accessorUVs"},{"bufferView":0,"byteOffset":6228,"componentType":5123,"count":1944,"type":"SCALAR","name":"accessorIndices"},{"bufferView":1,"byteOffset":74736,"componentType":5126,"count":1944,"max":[18.62146,4.550774,16.54235],"min":[-18.6898689,0.419586,-19.01765],"type":"VEC3","name":"accessorPositions"},{"bufferView":1,"byteOffset":98064,"componentType":5126,"count":1944,"type":"VEC3","name":"accessorNormals"},{"bufferView":2,"byteOffset":24912,"componentType":5126,"count":1944,"type":"VEC2","name":"accessorUVs"},{"bufferView":0,"byteOffset":10116,"componentType":5123,"count":510,"type":"SCALAR","name":"accessorIndices"},{"bufferView":1,"byteOffset":121392,"componentType":5126,"count":510,"max":[12.5376558,4.549161,21.2371368],"min":[-12.0978756,0.419585824,-17.5387936],"type":"VEC3","name":"accessorPositions"},{"bufferView":1,"byteOffset":127512,"componentType":5126,"count":510,"type":"VEC3","name":"accessorNormals"},{"bufferView":2,"byteOffset":40464,"componentType":5126,"count":510,"type":"VEC2","name":"accessorUVs"},{"bufferView":0,"byteOffset":11136,"componentType":5123,"count":216,"type":"SCALAR","name":"accessorIndices"},{"bufferView":1,"byteOffset":133632,"componentType":5126,"count":216,"max":[18.7497673,0.497788846,21.4724712],"min":[-18.7497673,-0.0102116736,-20.1083355],"type":"VEC3","name":"accessorPositions"},{"bufferView":1,"byteOffset":136224,"componentType":5126,"count":216,"type":"VEC3","name":"accessorNormals"},{"bufferView":2,"byteOffset":44544,"componentType":5126,"count":216,"type":"VEC2","name":"accessorUVs"}],"bufferViews":[{"buffer":0,"byteLength":11568,"name":"bufferViewScalar"},{"buffer":0,"byteOffset":11568,"byteLength":138816,"byteStride":12,"name":"bufferViewFloatVec3"},{"buffer":0,"byteOffset":150384,"byteLength":46272,"byteStride":8,"name":"bufferViewFloatVec2"}],"buffers":[{"uri":"house3_c.bin","byteLength":196656}],"materials":[{"pbrMetallicRoughness":{"baseColorTexture":{"index":0},"metallicFactor":0.0,"roughnessFactor":0.0},"name":"Material #25"},{"pbrMetallicRoughness":{"baseColorTexture":{"index":1},"metallicFactor":0.0,"roughnessFactor":0.0},"name":"Material #26"},{"pbrMetallicRoughness":{"baseColorTexture":{"index":2},"metallicFactor":0.0,"roughnessFactor":0.0},"name":"Material #38"},{"pbrMetallicRoughness":{"baseColorTexture":{"index":2},"metallicFactor":0.0,"roughnessFactor":0.0},"name":"Material #76"},{"pbrMetallicRoughness":{"baseColorTexture":{"index":0},"metallicFactor":0.0,"roughnessFactor":0.0},"name":"Material #101"}],"textures":[{"sampler":0,"source":0,"name":"a1-008-house5-1.png"},{"sampler":0,"source":1,"name":"a1-008-house5-02.png"},{"sampler":0,"source":2,"name":"a1-008-house5-03.png"}],"images":[{"uri":"./a1-008-house5-1.png"},{"uri":"./a1-008-house5-02.png"},{"uri":"./a1-008-house5-03.png"}],"samplers":[{"magFilter":9729,"minFilter":9987}]}